<svg
    width="200"
    height="200"
    viewBox="0 0 200 200"
    shape-rendering="geometricPrecision"
    xmlns="http://www.w3.org/2000/svg"
>
    <style xmlns="http://www.w3.org/2000/svg">
        rect {
            fill: #eaeaea;
        }
        path{
                stroke: #050505;
            }
        @media (prefers-color-scheme:dark){
            rect {
                fill: #050505;
            }
            path{
                stroke: #f2f2f2;
            }
        }
    </style>
    <rect width="100%" height="100%" rx="50"  ry="50" stroke-width="2"/>
    <g id="svgGroup" transform="translate(50, 50) scale(0.71999)">
        <path
            d="M 134.391 69.065 L 133.691 69.165 Q 128.091 69.665 121.991 70.565 A 108.305 108.305 0 0 1 115.773 94.129 A 94.205 94.205 0 0 1 110.591 105.165 Q 103.991 116.965 94.441 127.065 Q 84.891 137.165 73.441 144.465 Q 61.991 151.765 48.541 155.665 A 81.669 81.669 0 0 1 25.698 158.972 A 79.31 79.31 0 0 1 21.591 158.865 A 32.093 32.093 0 0 1 15.465 158.064 A 27.02 27.02 0 0 1 11.891 156.965 A 22.001 22.001 0 0 1 6.237 153.798 A 20.13 20.13 0 0 1 4.391 152.165 Q 1.291 149.065 0.341 144.615 Q -0.608 140.17 1.087 134.379 A 36.005 36.005 0 0 1 1.091 134.365 A 33.754 33.754 0 0 1 4.108 127.474 A 40.674 40.674 0 0 1 5.841 124.715 A 57.301 57.301 0 0 1 10.771 118.455 A 49.854 49.854 0 0 1 12.841 116.315 Q 16.561 112.694 21.759 108.924 A 110.585 110.585 0 0 1 21.841 108.865 Q 27.091 105.065 31.091 102.615 A 178.738 178.738 0 0 1 34.839 100.385 Q 36.767 99.269 38.926 98.072 A 303.567 303.567 0 0 1 40.391 97.265 A 259.615 259.615 0 0 1 88.922 76.21 A 221.261 221.261 0 0 1 118.191 69.165 A 86.384 86.384 0 0 0 118.791 59.065 A 80.507 80.507 0 0 0 116.391 39.465 A 71.348 71.348 0 0 0 112.86 28.629 A 65.55 65.55 0 0 0 112.491 27.765 Q 110.091 22.265 106.391 17.365 A 44.558 44.558 0 0 0 100.701 11.111 A 39.11 39.11 0 0 0 98.241 9.065 Q 93.791 5.665 87.791 4.065 A 32.119 32.119 0 0 0 79.479 2.998 A 37.001 37.001 0 0 0 75.091 3.265 Q 63.191 4.865 53.191 11.665 Q 43.191 18.465 37.441 29.065 A 45.659 45.659 0 0 0 31.789 51.159 A 48.376 48.376 0 0 0 31.791 51.565 Q 31.891 52.265 30.791 52.765 A 5.763 5.763 0 0 1 29.636 53.155 A 4.656 4.656 0 0 1 28.641 53.265 A 2.746 2.746 0 0 1 28.284 53.244 Q 27.901 53.193 27.729 53.022 A 0.483 0.483 0 0 1 27.591 52.665 A 37.667 37.667 0 0 1 27.588 52.194 Q 27.588 44.422 30.791 36.415 Q 34.091 28.165 39.591 21.365 Q 45.091 14.565 52.691 9.365 A 59.482 59.482 0 0 1 63.724 3.361 A 52.459 52.459 0 0 1 68.341 1.715 Q 76.391 -0.735 85.091 0.315 Q 93.791 1.365 101.291 6.465 Q 106.991 10.365 111.241 15.765 Q 115.491 21.165 117.991 27.265 A 70.581 70.581 0 0 1 121.499 38.484 A 79.296 79.296 0 0 1 121.891 40.315 A 65.762 65.762 0 0 1 123.197 53.332 A 65.322 65.322 0 0 1 123.191 54.265 Q 123.091 61.265 122.291 68.465 Q 128.491 67.565 134.291 67.065 Q 135.423 66.994 135.804 67.324 A 0.538 0.538 0 0 1 135.991 67.665 A 0.891 0.891 0 0 1 135.757 68.247 Q 135.38 68.694 134.391 69.065 Z M 74.691 140.765 Q 91.991 128.665 103.541 110.265 Q 115.091 91.865 117.891 71.265 Q 78.791 77.865 41.391 99.165 A 181.812 181.812 0 0 0 36.574 102.104 A 214.658 214.658 0 0 0 34.291 103.565 A 106.999 106.999 0 0 0 31.34 105.555 Q 28.734 107.371 25.641 109.715 A 125.165 125.165 0 0 0 19.236 114.895 A 106.87 106.87 0 0 0 16.591 117.265 Q 12.491 121.065 9.091 125.665 A 41.215 41.215 0 0 0 6.399 129.772 Q 5.141 131.985 4.349 134.123 A 24.85 24.85 0 0 0 4.191 134.565 Q 2.691 138.865 3.791 143.415 A 15.543 15.543 0 0 0 6.337 148.849 A 21.427 21.427 0 0 0 8.991 151.865 A 17.182 17.182 0 0 0 14.306 155.185 A 19.986 19.986 0 0 0 15.191 155.515 A 24.358 24.358 0 0 0 20.471 156.69 A 29.556 29.556 0 0 0 23.091 156.865 Q 27.391 156.965 30.691 156.765 Q 33.991 156.565 37.991 155.965 A 83.014 83.014 0 0 0 69.207 144.379 A 99.348 99.348 0 0 0 74.691 140.765 Z"
            stroke-width="10"
        ></path>
    </g>
</svg>
